<svg width="155" height="72" viewBox="0 0 155 72" fill="none" xmlns="http://www.w3.org/2000/svg">
<path d="M5.84659 36.1462C6.48168 36.7656 7.11678 37.3474 7.73319 37.9667C9.89998 40.1625 12.0481 42.3958 14.2149 44.5916C14.4203 44.8168 14.5137 45.1171 14.4764 45.3986V48.9269C14.4764 51.5731 14.4764 54.2194 14.4764 56.8656C14.4764 57.2222 14.5698 57.316 14.9247 57.316C18.7352 57.2972 22.5458 57.2972 26.3564 57.2972C26.5618 57.316 26.7486 57.4286 26.8794 57.5788C28.0001 58.7048 29.1396 59.8684 30.2416 61.0132C31.8667 62.6835 33.4918 64.3726 35.1543 66.0804C35.5652 65.6676 35.9201 65.311 36.275 64.9544C38.666 62.4958 41.0569 60.0185 43.4852 57.5788C43.6907 57.4098 43.9522 57.2972 44.2137 57.2972C47.9682 57.2785 51.7227 57.2785 55.4772 57.2972C55.8321 57.2972 55.8882 57.1846 55.8882 56.8468C55.8882 53.0182 55.8882 49.1709 55.8695 45.3423C55.8508 45.0045 55.9816 44.6855 56.2244 44.4603C57.9803 42.6773 59.7361 40.8944 61.4919 39.1115C61.6227 38.9801 61.8095 38.8863 61.9963 38.8675C63.7521 38.8488 65.508 38.8675 67.2638 38.8675C67.3385 38.8675 67.4132 38.8863 67.488 38.9051C67.4319 38.9801 67.3946 39.0552 67.3199 39.1303C64.985 41.5138 62.6687 43.8972 60.3338 46.2807C60.1284 46.4872 59.9976 46.7687 60.0163 47.0689C60.0163 51.6858 60.0163 56.2838 60.0163 60.9006C60.0163 61.5575 60.0163 61.5575 59.3625 61.5575C54.8421 61.5575 50.3218 61.5575 45.8014 61.5575C45.5773 61.5575 45.3718 61.6513 45.2037 61.8014C42.9809 64.0723 40.7767 66.3432 38.5539 68.6141C37.5078 69.7026 36.4431 70.7723 35.3971 71.8608C35.1916 72.0673 35.0609 72.0297 34.8741 71.8421C33.7533 70.6785 32.6326 69.5524 31.5118 68.3888C29.345 66.1743 27.1782 63.9409 25.0115 61.7264C24.8807 61.6138 24.7313 61.5575 24.5632 61.5575C20.0054 61.5575 15.429 61.5575 10.8713 61.5575C10.2549 61.5575 10.2549 61.5575 10.2549 60.9381V47.0314C10.2736 46.7687 10.1615 46.5059 9.9747 46.3182C7.91998 44.2163 5.86527 42.1143 3.81056 40.0124C2.59641 38.7549 1.36358 37.4975 0.149434 36.2401C0.093396 36.1838 0.0560376 36.1275 0 36.0712C0.149434 35.9023 0.280188 35.7334 0.410942 35.5832C2.55905 33.3874 4.68848 31.1916 6.83659 28.9958C7.88262 27.9261 8.92866 26.8563 9.95602 25.7678C10.1241 25.5801 10.2175 25.3549 10.2175 25.0922C10.2362 20.4378 10.2362 15.7647 10.2362 11.1104C10.2362 10.5661 10.2362 10.5661 10.7966 10.5661H24.3577C24.6566 10.5849 24.9367 10.4535 25.1235 10.2471C28.2243 7.05659 31.3437 3.86611 34.4631 0.694398C34.6686 0.487956 34.8554 0.262745 35.0795 0C35.7333 0.656863 36.3497 1.27619 36.9475 1.89552C39.6933 4.71065 42.4205 7.50701 45.1663 10.3034C45.3344 10.4535 45.5586 10.5473 45.7827 10.5661C50.3405 10.5849 54.8795 10.5849 59.4372 10.5849C59.9976 10.5849 59.9976 10.5849 59.9976 11.1667C59.9976 15.8023 59.9976 20.4378 59.9976 25.0734C59.9789 25.3549 60.091 25.6364 60.2965 25.8241C62.5753 28.1325 64.8542 30.4597 67.1144 32.7869C67.2638 32.937 67.3946 33.1059 67.5253 33.2561L67.488 33.3687H66.1991C64.8542 33.3687 63.528 33.3687 62.1831 33.3499C61.9216 33.3311 61.6787 33.2373 61.4919 33.0684C59.6987 31.2479 57.9055 29.4275 56.131 27.5883C55.9629 27.4006 55.8508 27.1754 55.8508 26.9314C55.8321 23.0653 55.8321 19.1992 55.8508 15.3331C55.8508 14.9389 55.7387 14.8263 55.3652 14.8263C51.6106 14.8263 47.8374 14.8263 44.0642 14.8263C43.8401 14.8076 43.6159 14.7137 43.4478 14.5636C40.7767 11.8423 38.1056 9.12102 35.4531 6.39973C35.229 6.15575 35.0795 6.11821 34.818 6.38096C33.2116 8.05127 31.5679 9.72158 29.9428 11.3731C28.8967 12.4429 27.8694 13.5314 26.8047 14.5824C26.6179 14.7513 26.3937 14.8263 26.1509 14.8451C22.4337 14.8639 18.7166 14.8451 14.9994 14.8451H14.4577C14.4577 15.0703 14.4203 15.258 14.4203 15.4457C14.4203 19.1804 14.4203 22.9339 14.4203 26.6686C14.439 27.0628 14.2896 27.4569 13.9907 27.7384C11.3383 30.4409 8.68583 33.1434 6.05206 35.8647C6.05206 35.9023 5.99602 35.9773 5.84659 36.1462Z" fill="#D93744"/>
<path d="M49.6679 38.9426C49.3316 39.9561 49.0141 40.9132 48.6965 41.8891C48.5845 42.2269 48.5098 42.5835 48.4911 42.9589C48.4724 45.0796 48.4724 47.2003 48.4911 49.3211C48.4911 49.7152 48.3416 49.7715 48.0241 49.7715C45.9694 49.7527 43.896 49.7715 41.8413 49.7527C41.2249 49.809 40.6271 49.9967 40.0668 50.2782C37.3583 51.2729 34.4256 51.423 31.6424 50.7099C30.8766 50.5222 30.1294 50.1844 29.3636 49.9216C29.1207 49.8278 28.8592 49.7715 28.5977 49.7715C26.5057 49.7527 24.4136 49.7527 22.3215 49.7715C21.9106 49.7715 21.8172 49.6589 21.8172 49.246C21.8359 47.1065 21.8359 44.967 21.8172 42.8275C21.8172 42.5648 21.7611 42.302 21.6677 42.058C20.3789 39.0177 20.1174 35.6395 20.9206 32.4491C21.1074 31.7171 21.4062 31.0227 21.6304 30.2908C21.7425 29.9717 21.7985 29.6527 21.8359 29.3149C21.8545 27.1942 21.8359 25.0922 21.8359 22.9527C21.8359 22.4272 21.8359 22.4272 22.3589 22.4272C24.451 22.4272 26.543 22.4272 28.6164 22.4272C28.8966 22.4272 29.1581 22.3709 29.4196 22.2583C32.8192 20.7381 36.6858 20.6443 40.1602 21.9956C40.9447 22.3146 41.7666 22.4647 42.6071 22.446C44.419 22.3897 46.1935 22.4272 48.0054 22.4084C48.3603 22.4084 48.4911 22.521 48.4724 22.8964C48.4537 25.0171 48.4537 27.1379 48.4724 29.2586C48.4911 29.6152 48.5471 29.9717 48.6779 30.3283C48.9394 31.2292 49.2382 32.13 49.5184 33.0309C49.6118 33.3124 49.5184 33.425 49.2196 33.425C48.0241 33.425 46.8099 33.425 45.6145 33.425C45.465 33.3874 45.3343 33.2936 45.2596 33.1435C44.9607 32.4491 44.6805 31.7547 44.419 31.0415C44.3443 30.7788 44.2883 30.516 44.3069 30.2533C44.2883 29.221 44.2883 28.1888 44.3069 27.1754C44.3069 26.8563 44.2135 26.7437 43.896 26.7625C42.8686 26.7813 41.8413 26.8 40.7952 26.7625C40.403 26.725 40.0294 26.6124 39.6745 26.4435C36.6671 24.9608 33.1555 25.0359 30.2041 26.6311C29.98 26.725 29.7372 26.7813 29.4757 26.7813C28.4296 26.8 27.3836 26.8 26.3375 26.7813C26.02 26.7813 25.9266 26.8751 25.9266 27.1942C25.9453 28.2451 25.9453 29.2774 25.9266 30.3283C25.9266 30.6661 25.8332 31.0227 25.7025 31.3418C24.1894 34.3821 24.1894 37.9479 25.6838 40.9695C25.8332 41.3261 25.9266 41.7202 25.9453 42.0956C25.9826 43.109 25.964 44.1412 25.9453 45.1359C25.9453 45.455 26.02 45.5863 26.3562 45.5863C27.4209 45.5676 28.5043 45.5676 29.5691 45.5863C29.7932 45.5863 30.0174 45.6426 30.2041 45.7365C33.1928 47.3505 36.7605 47.388 39.7866 45.8491C40.1228 45.6802 40.4964 45.6051 40.87 45.5863C41.8786 45.5488 42.8873 45.5676 43.8773 45.5863C44.1762 45.5863 44.2696 45.4737 44.2696 45.1922C44.2509 44.1037 44.2509 43.0152 44.2696 41.9454C44.3069 41.6451 44.3817 41.3449 44.4937 41.0634C44.6992 40.4816 44.9234 39.8998 45.1662 39.3367C45.2222 39.2054 45.3903 39.0177 45.5211 38.9989C46.7726 38.9802 48.0428 38.9802 49.2943 38.9989C49.3877 39.0177 49.4811 39.0365 49.5745 39.074" fill="#D93744"/>
<path d="M149.676 58.6297H152.516V60.2625H147.099V55.6269H152.516L153.618 54.3132H147.211C146.688 54.2569 146.165 54.3883 145.754 54.6886C145.455 55.0827 145.324 55.5706 145.38 56.0586V59.9247C145.324 60.4126 145.455 60.9006 145.754 61.2947C146.183 61.595 146.706 61.7076 147.211 61.6513H152.347C152.87 61.7076 153.375 61.5762 153.804 61.2947C154.103 60.9006 154.234 60.4126 154.178 59.9247V57.4098H150.928L149.676 58.6297Z" fill="#D93744"/>
<path d="M138.002 54.3132L138.077 59.418L132.473 54.3132H130.811V61.6325H132.361L132.286 56.509L137.89 61.6325H139.552V54.3132H138.002Z" fill="#D93744"/>
<path d="M115.848 56.0398C115.792 55.5518 115.923 55.0639 116.222 54.6698C116.652 54.3695 117.175 54.2381 117.679 54.2944H123.152C123.675 54.2381 124.198 54.3695 124.609 54.6698C124.908 55.0639 125.039 55.5518 124.982 56.0398V59.9059C125.039 60.3938 124.908 60.8818 124.609 61.2759C124.179 61.5762 123.656 61.6888 123.152 61.6325H117.679C117.156 61.6888 116.652 61.5574 116.222 61.2759C115.923 60.8818 115.792 60.3938 115.848 59.9059V56.0398ZM117.567 60.2625H123.283V55.6269H117.567V60.2625Z" fill="#D93744"/>
<path d="M102.885 61.6325V54.3132H104.622V57.3723L108.75 54.3132H111.253L106.341 57.7664L111.87 61.6325H109.087L104.622 58.4045V61.6325H102.885Z" fill="#D93744"/>
<path d="M88.1846 61.6325L89.0999 60.0373L92.3874 54.3132H94.0498L97.3934 60.0373L98.3274 61.6325H96.3847L95.4881 60.0373H90.7623L89.9031 61.6325H88.1846ZM91.5095 58.7048H94.7783L93.1719 55.7208L91.5095 58.7048Z" fill="#D93744"/>
<path d="M75.9871 61.6325V54.3132H82.3753C82.8236 54.2757 83.2719 54.3883 83.6455 54.651C83.9257 54.9325 84.0752 55.3266 84.0378 55.7395V56.6404C84.0565 56.9594 83.9257 57.2597 83.7016 57.4849C83.4401 57.7101 83.1038 57.8603 82.7489 57.879C83.1225 57.9166 83.4774 58.0667 83.7389 58.3294C83.9818 58.5922 84.0938 58.93 84.0938 59.2866V60.225C84.1125 60.6566 83.907 61.0695 83.5521 61.3135C83.0478 61.5762 82.4687 61.7076 81.9084 61.6701L75.9871 61.6325ZM81.6282 55.5143H77.6682V57.2597H81.6282C81.8337 57.2785 82.0578 57.2409 82.2446 57.1471C82.3753 57.0533 82.4314 56.9031 82.4127 56.7342V56.0398C82.4314 55.8897 82.3567 55.7208 82.2446 55.6269C82.0578 55.5331 81.8523 55.4955 81.6282 55.5143ZM81.6282 58.4608H77.6682V60.3188H81.6282C81.8523 60.3376 82.0952 60.3 82.3006 60.1687C82.4314 60.0373 82.4874 59.8496 82.4687 59.6619V59.1177C82.4874 58.93 82.4314 58.7423 82.3006 58.611C82.0952 58.4796 81.871 58.4421 81.6282 58.4608Z" fill="#D93744"/>
<path d="M88.0539 38.8488V29.4838L91.8644 25.7491V42.5835L88.0539 46.3183V42.5835H78.5462L74.7356 38.8488V18.2608L78.5462 14.5261H99.4669L103.277 18.2608V38.8488L99.4669 42.5835V18.2608H78.5462V38.8488H88.0539Z" fill="#D93744"/>
<path d="M115.064 18.2608L111.253 14.5261H128.382L124.572 18.2608H115.064ZM111.253 38.8488V23.8723L115.064 20.1376H124.572L128.382 23.8723V38.8488L124.572 42.5835V23.8723H115.064V36.972L118.875 33.2373V38.8488L115.064 42.5835L111.253 38.8488Z" fill="#D93744"/>
<path d="M153.095 14.5261L155 16.4028V18.2796L153.095 20.1563V38.8675L149.303 42.5835H139.795L135.985 38.8488V22.0143L134.079 20.1375H139.777V38.8488H142.634V36.972H146.445V38.8488H149.303V18.2796H134.079V14.5261L137.89 10.7913V14.5261H153.095Z" fill="#D93744"/>
</svg>
